<mxfile host="app.diagrams.net" agent="Mozilla/5.0 (Windows NT 10.0; Win64; x64) AppleWebKit/537.36 (KHTML, like Gecko) Chrome/127.0.0.0 Safari/537.36" version="24.7.7">
  <diagram name="페이지-1" id="VP2TWbbV3WUYrhYYqZj9">
    <mxGraphModel dx="836" dy="518" grid="1" gridSize="10" guides="1" tooltips="1" connect="1" arrows="1" fold="1" page="1" pageScale="1" pageWidth="827" pageHeight="1169" math="0" shadow="0">
      <root>
        <mxCell id="0" />
        <mxCell id="1" parent="0" />
        <mxCell id="kX8l-Wb6bYq9xpeANjjM-1" value="송신하려는 정보를 전달 받음" style="rounded=0;whiteSpace=wrap;html=1;fillColor=#dae8fc;strokeColor=#6c8ebf;" vertex="1" parent="1">
          <mxGeometry x="50" y="210" width="190" height="60" as="geometry" />
        </mxCell>
        <mxCell id="kX8l-Wb6bYq9xpeANjjM-2" value="안정적인 송신을 위해&amp;nbsp;&lt;div&gt;정보를 더하고 빼는 과정&lt;/div&gt;" style="rounded=0;whiteSpace=wrap;html=1;fillColor=#dae8fc;strokeColor=#6c8ebf;" vertex="1" parent="1">
          <mxGeometry x="50" y="290" width="190" height="60" as="geometry" />
        </mxCell>
        <mxCell id="kX8l-Wb6bYq9xpeANjjM-3" value="송신하려는 정보의&amp;nbsp;&lt;div&gt;송신지와 수신시를 결정하는 과정&lt;/div&gt;" style="rounded=0;whiteSpace=wrap;html=1;fillColor=#dae8fc;strokeColor=#6c8ebf;" vertex="1" parent="1">
          <mxGeometry x="50" y="370" width="190" height="60" as="geometry" />
        </mxCell>
        <mxCell id="kX8l-Wb6bYq9xpeANjjM-4" value="송신하려는 정보를&amp;nbsp;&lt;div&gt;유무선 매체를 통해 주고받는 과정&lt;/div&gt;" style="rounded=0;whiteSpace=wrap;html=1;fillColor=#dae8fc;strokeColor=#6c8ebf;" vertex="1" parent="1">
          <mxGeometry x="50" y="450" width="190" height="60" as="geometry" />
        </mxCell>
        <mxCell id="kX8l-Wb6bYq9xpeANjjM-5" value="수신하려는 정보를&amp;nbsp;&lt;div&gt;유무선 매체를 통해 주고받는 과정&lt;/div&gt;" style="rounded=0;whiteSpace=wrap;html=1;fillColor=#dae8fc;strokeColor=#6c8ebf;" vertex="1" parent="1">
          <mxGeometry x="380" y="450" width="190" height="60" as="geometry" />
        </mxCell>
        <mxCell id="kX8l-Wb6bYq9xpeANjjM-6" value="수신하려는 정보의&lt;div&gt;송신지와 수신지를 결정하는 과정&lt;/div&gt;" style="rounded=0;whiteSpace=wrap;html=1;fillColor=#dae8fc;strokeColor=#6c8ebf;" vertex="1" parent="1">
          <mxGeometry x="380" y="370" width="190" height="60" as="geometry" />
        </mxCell>
        <mxCell id="kX8l-Wb6bYq9xpeANjjM-7" value="안정적인 수신을 위해&amp;nbsp;&lt;div&gt;정보를 더하고 빼는 과정&lt;/div&gt;" style="rounded=0;whiteSpace=wrap;html=1;fillColor=#dae8fc;strokeColor=#6c8ebf;" vertex="1" parent="1">
          <mxGeometry x="380" y="290" width="190" height="60" as="geometry" />
        </mxCell>
        <mxCell id="kX8l-Wb6bYq9xpeANjjM-8" value="수신하려는 정보를 전달 받음" style="rounded=0;whiteSpace=wrap;html=1;fillColor=#dae8fc;strokeColor=#6c8ebf;" vertex="1" parent="1">
          <mxGeometry x="380" y="210" width="190" height="60" as="geometry" />
        </mxCell>
        <mxCell id="kX8l-Wb6bYq9xpeANjjM-9" value="&lt;font face=&quot;Comic Sans MS&quot; style=&quot;font-size: 22px;&quot;&gt;&lt;b&gt;송신&amp;nbsp;&lt;/b&gt;&lt;/font&gt;" style="text;html=1;align=center;verticalAlign=middle;resizable=0;points=[];autosize=1;strokeColor=none;fillColor=none;" vertex="1" parent="1">
          <mxGeometry x="105" y="153" width="80" height="40" as="geometry" />
        </mxCell>
        <mxCell id="kX8l-Wb6bYq9xpeANjjM-11" value="&lt;font face=&quot;Comic Sans MS&quot; style=&quot;font-size: 22px;&quot;&gt;&lt;b&gt;수신&lt;/b&gt;&lt;/font&gt;" style="text;html=1;align=center;verticalAlign=middle;resizable=0;points=[];autosize=1;strokeColor=none;fillColor=none;" vertex="1" parent="1">
          <mxGeometry x="440" y="153" width="70" height="40" as="geometry" />
        </mxCell>
        <mxCell id="kX8l-Wb6bYq9xpeANjjM-14" value="" style="endArrow=none;html=1;rounded=0;strokeColor=#f90b0b;" edge="1" parent="1">
          <mxGeometry width="50" height="50" relative="1" as="geometry">
            <mxPoint x="260" y="480" as="sourcePoint" />
            <mxPoint x="260" y="210" as="targetPoint" />
          </mxGeometry>
        </mxCell>
        <mxCell id="kX8l-Wb6bYq9xpeANjjM-15" value="" style="endArrow=none;html=1;rounded=0;strokeColor=#f90b0b;" edge="1" parent="1">
          <mxGeometry width="50" height="50" relative="1" as="geometry">
            <mxPoint x="360" y="480" as="sourcePoint" />
            <mxPoint x="260" y="480" as="targetPoint" />
          </mxGeometry>
        </mxCell>
        <mxCell id="kX8l-Wb6bYq9xpeANjjM-16" value="" style="endArrow=classic;html=1;rounded=0;strokeColor=#f90b0b;" edge="1" parent="1">
          <mxGeometry width="50" height="50" relative="1" as="geometry">
            <mxPoint x="360" y="480" as="sourcePoint" />
            <mxPoint x="360" y="210" as="targetPoint" />
          </mxGeometry>
        </mxCell>
        <mxCell id="kX8l-Wb6bYq9xpeANjjM-17" value="&lt;b&gt;&lt;font face=&quot;Comic Sans MS&quot;&gt;메시지&lt;/font&gt;&lt;/b&gt;" style="shape=note;whiteSpace=wrap;html=1;backgroundOutline=1;darkOpacity=0.05;" vertex="1" parent="1">
          <mxGeometry x="320" y="120" width="70" height="80" as="geometry" />
        </mxCell>
      </root>
    </mxGraphModel>
  </diagram>
</mxfile>
